{"title":"Gunday 2014 Hindi DVDRip x264-MX","uid":10109370,"size":737108028,"categoryP":"video","categoryS":"movies","magnet":"?xt=urn:btih:b068d155ba305a68b1220cef4a76d1de642576e9&amp;dn=Gunday+2014+Hindi+DVDRip+x264-MX&amp;tr=udp%3A%2F%2Ftracker.openbittorrent.com%3A80&amp;tr=udp%3A%2F%2Fopen.demonii.com%3A1337&amp;tr=udp%3A%2F%2Ftracker.coppersurfer.tk%3A6969&amp;tr=udp%3A%2F%2Fexodus.desync.com%3A6969","seeders":2,"leechers":1,"uploader":"HeroMaster","files":-1,"time":1399498736,"description":"::::::::::: HDDR PRESENTS ::::::::::::\n\n &lt;a href=&quot;\nhttp://i.imgur.com/jvDeUsC.png&quot; rel=&quot;nofollow&quot; target=&quot;_NEW&quot;&gt;\nhttp://i.imgur.com/jvDeUsC.png&lt;/a&gt;\n\n\n:::: Gunday 2014 Hindi DVDRip x264-MX ::::\n\n\n::Information::\n\n\nGunday (2014) - 1CD - DVDRip - x264 By Mx\n\n\nGeneral\nComplete name : Gunday (2014) - 1CD - DVDRip - x264 By Mx-\nFormat : Matroska\nFormat version : Version 4 / Version 2\nFile size : 701 MiB\nDuration : 2h 32mn\nOverall bit rate mode : Variable\nOverall bit rate : 641 Kbps\nMovie name : Mx- Present\n\n\nVideo\nID : 1\nFormat : AVC\nFormat/Info : Advanced Video Codec\nFormat profile : &lt;a class=&quot;__cf_email__&quot; href=&quot;/cdn-cgi/l/email-protection&quot; data-cfemail=&quot;de96b7b9b69e92edf0ef&quot;&gt;[email&amp;#160;protected]&lt;/a&gt;&lt;script cf-hash='f9e31' type=&quot;text/javascript&quot;&gt;\n/* &lt;![CDATA[ */!function(){try{var t=&quot;currentScript&quot;in document?document.currentScript:function(){for(var t=document.getElementsByTagName(&quot;script&quot;),e=t.length;e--;)if(t[e].getAttribute(&quot;cf-hash&quot;))return t[e]}();if(t&amp;&amp;t.previousSibling){var e,r,n,i,c=t.previousSibling,a=c.getAttribute(&quot;data-cfemail&quot;);if(a){for(e=&quot;&quot;,r=parseInt(a.substr(0,2),16),n=2;a.length-n;n+=2)i=parseInt(a.substr(n,2),16)^r,e+=String.fromCharCode(i);e=document.createTextNode(e),c.parentNode.replaceChild(e,c)}}}catch(u){}}();/* ]]&gt; */&lt;/script&gt;\nFormat settings, CABAC : Yes\nFormat settings, ReFrames : 3 frames\nCodec ID : V_MPEG4/ISO/AVC\nDuration : 2h 32mn\nBit rate : 560 Kbps\nWidth : 640 pixels\nHeight : 272 pixels\nDisplay aspect ratio : 2.35:1\nFrame rate mode : Constant\nFrame rate : 25.000 fps\nOriginal frame rate : 24.975 fps\nBit depth : 8 bits\nScan type : Progressive\nBits/(Pixel*Frame) : 0.129\nStream size : 599 MiB (86%)\nTitle : Mx- Present\nWriting library : x264\nLanguage : Hindi\nDefault : Yes\nForced : No\n\n\nAudio\nID : 2\nFormat : MPEG Audio\nFormat version : Version 1\nFormat profile : Layer 3\nMode : Joint stereo\nCodec ID : A_MPEG/L3\nCodec ID/Hint : MP3\nDuration : 2h 30mn\nBit rate mode : Variable\nBit rate : 80.0 Kbps\nChannel(s) : 2 channels\nSampling rate : 32.0 KHz\nCompression mode : Lossy\nStream size : 86.2 MiB (12%)\nTitle : Mx-\nLanguage : Hindi\nDefault : Yes\nForced : No\n\n\n::IMDB::\n\n &lt;a href=&quot;\nhttp://www.imdb.com/title/tt2574698/&quot; rel=&quot;nofollow&quot; target=&quot;_NEW&quot;&gt;\nhttp://www.imdb.com/title/tt2574698/&lt;/a&gt;\n\n\n::Greetz and Respect::\n\n\n;Thanks Team HDRR;\nFaraz Zafar(Boniin),Mohsin Pathan(~Mohsin1819),Invincible Rajat,\nTariq Qureshi,~HI-MANTaha Rizvi,Sadhu's HD,Vaibhav(TBI),SMSadiq\n\nDJ Group HD Movie Releases\nHD DESI ROCKER RELEAESEES\nInvincible Movie Zone\nTQTorrent\nInvincible Audio Zone\n\n\n::Poster::\n\n &lt;a href=&quot;\nhttp://i.imgur.com/ZlbathX.jpg&quot; rel=&quot;nofollow&quot; target=&quot;_NEW&quot;&gt;\nhttp://i.imgur.com/ZlbathX.jpg&lt;/a&gt;\n\n\n::Screenshots::\n\n &lt;a href=&quot;\nhttp://i.imgur.com/KcbcHeR.jpg&quot; rel=&quot;nofollow&quot; target=&quot;_NEW&quot;&gt;\nhttp://i.imgur.com/KcbcHeR.jpg&lt;/a&gt;\n\n &lt;a href=&quot;\nhttp://i.imgur.com/7wzAUul.jpg&quot; rel=&quot;nofollow&quot; target=&quot;_NEW&quot;&gt;\nhttp://i.imgur.com/7wzAUul.jpg&lt;/a&gt;\n\n &lt;a href=&quot;\nhttp://i.imgur.com/3NmZEEY.jpg&quot; rel=&quot;nofollow&quot; target=&quot;_NEW&quot;&gt;\nhttp://i.imgur.com/3NmZEEY.jpg&lt;/a&gt;\n\n\nSEED AND ENJOY!","torrent":{"xt":"urn:btih:b068d155ba305a68b1220cef4a76d1de642576e9","amp;dn":"Gunday+2014+Hindi+DVDRip+x264-MX","amp;tr":["udp%3A%2F%2Ftracker.openbittorrent.com%3A80","udp%3A%2F%2Fopen.demonii.com%3A1337","udp%3A%2F%2Ftracker.coppersurfer.tk%3A6969","udp%3A%2F%2Fexodus.desync.com%3A6969"],"infoHash":"b068d155ba305a68b1220cef4a76d1de642576e9","infoHashBuffer":{"type":"Buffer","data":[176,104,209,85,186,48,90,104,177,34,12,239,74,118,209,222,100,37,118,233]},"announce":[],"urlList":[]}}